<?xml version="1.0" standalone="no"?>
 <!DOCTYPE svg PUBLIC "-//W3C//DTD SVG 1.1//EN" 
 "http://www.w3.org/Graphics/SVG/1.1/DTD/svg11.dtd"> 
<svg xmlns="http://www.w3.org/2000/svg" version="1.1" 
    width="29.7002cm" height="21.0007cm" viewBox="0 0 116930 82680 ">
<title>SVG Picture created as Buck Converter-F.Cu.svg date 2018/04/13 09:20:40 </title>
  <desc>Picture generated by PCBNEW </desc>
<g style="fill:#000000; fill-opacity:1;stroke:#000000; stroke-opacity:1;
stroke-linecap:round; stroke-linejoin:round; "
 transform="translate(0 0) scale(1 1)">
</g>
<g style="fill:#000000; fill-opacity:0.0; 
stroke:#000000; stroke-width:-0.000393701; stroke-opacity:1; 
stroke-linecap:round; stroke-linejoin:round;">
</g>
<g style="fill:#000000; fill-opacity:0.0; 
stroke:#000000; stroke-width:0; stroke-opacity:1; 
stroke-linecap:round; stroke-linejoin:round;">
</g>
<g style="fill:#000000; fill-opacity:1.0; 
stroke:#000000; stroke-width:0; stroke-opacity:1; 
stroke-linecap:round; stroke-linejoin:round;">
<polyline style="fill-rule:evenodd;"
points="36714,31175
36085,31175
36085,29798
36714,29798
36714,31175
" /> 
<polyline style="fill-rule:evenodd;"
points="36714,33301
36085,33301
36085,31924
36714,31924
36714,33301
" /> 
<polyline style="fill-rule:evenodd;"
points="46785,27724
47414,27724
47414,29101
46785,29101
46785,27724
" /> 
<polyline style="fill-rule:evenodd;"
points="46785,25598
47414,25598
47414,26975
46785,26975
46785,25598
" /> 
<polyline style="fill-rule:evenodd;"
points="44649,28046
44649,29030
43350,29030
43350,28046
44649,28046
" /> 
<polyline style="fill-rule:evenodd;"
points="44649,25369
44649,26353
43350,26353
43350,25369
44649,25369
" /> 
<polyline style="fill-rule:evenodd;"
points="35722,28572
34777,28572
34777,27627
35722,27627
35722,28572
" /> 
<circle cx="35250" cy="26131.5" r="472.441" /> 
</g>
<g style="fill:#000000; fill-opacity:1.0; 
stroke:#000000; stroke-width:39.3701; stroke-opacity:1; 
stroke-linecap:round; stroke-linejoin:round;">
</g>
<g style="fill:#000000; fill-opacity:1.0; 
stroke:#000000; stroke-width:0; stroke-opacity:1; 
stroke-linecap:round; stroke-linejoin:round;">
<polyline style="fill-rule:evenodd;"
points="50477,31059
51422,31059
51422,32003
50477,32003
50477,31059
" /> 
<circle cx="50950" cy="33500" r="472.441" /> 
</g>
<g style="fill:#000000; fill-opacity:1.0; 
stroke:#000000; stroke-width:39.3701; stroke-opacity:1; 
stroke-linecap:round; stroke-linejoin:round;">
</g>
<g style="fill:#000000; fill-opacity:1.0; 
stroke:#000000; stroke-width:0; stroke-opacity:1; 
stroke-linecap:round; stroke-linejoin:round;">
<polyline style="fill-rule:evenodd;"
points="47327,33162
47327,31037
48469,31037
48469,33162
47327,33162
" /> 
<polyline style="fill-rule:evenodd;"
points="43430,33162
43430,31037
44572,31037
44572,33162
43430,33162
" /> 
<polyline style="fill-rule:evenodd;"
points="42955,31437
42444,31437
42444,31162
42955,31162
42955,31437
" /> 
<polyline style="fill-rule:evenodd;"
points="42955,30689
42444,30689
42444,30414
42955,30414
42955,30689
" /> 
<circle cx="39800" cy="32850" r="283.465" /> 
</g>
<g style="fill:#000000; fill-opacity:1.0; 
stroke:#000000; stroke-width:39.3701; stroke-opacity:1; 
stroke-linecap:round; stroke-linejoin:round;">
</g>
<g style="fill:#000000; fill-opacity:1.0; 
stroke:#000000; stroke-width:0; stroke-opacity:1; 
stroke-linecap:round; stroke-linejoin:round;">
<circle cx="40800" cy="32850" r="283.465" /> 
</g>
<g style="fill:#000000; fill-opacity:1.0; 
stroke:#000000; stroke-width:39.3701; stroke-opacity:1; 
stroke-linecap:round; stroke-linejoin:round;">
</g>
<g style="fill:#000000; fill-opacity:1.0; 
stroke:#000000; stroke-width:0; stroke-opacity:1; 
stroke-linecap:round; stroke-linejoin:round;">
<circle cx="41800" cy="32850" r="283.465" /> 
</g>
<g style="fill:#000000; fill-opacity:1.0; 
stroke:#000000; stroke-width:39.3701; stroke-opacity:1; 
stroke-linecap:round; stroke-linejoin:round;">
</g>
<g style="fill:#000000; fill-opacity:1.0; 
stroke:#000000; stroke-width:0; stroke-opacity:1; 
stroke-linecap:round; stroke-linejoin:round;">
<polyline style="fill-rule:evenodd;"
points="38890,31413
38457,31413
38457,29602
38890,29602
38890,31413
" /> 
<polyline style="fill-rule:evenodd;"
points="39559,31413
39126,31413
39126,29602
39559,29602
39559,31413
" /> 
<polyline style="fill-rule:evenodd;"
points="40229,31413
39795,31413
39795,29602
40229,29602
40229,31413
" /> 
<polyline style="fill-rule:evenodd;"
points="40898,31413
40465,31413
40465,29602
40898,29602
40898,31413
" /> 
<polyline style="fill-rule:evenodd;"
points="41567,31413
41134,31413
41134,29602
41567,29602
41567,31413
" /> 
<polyline style="fill-rule:evenodd;"
points="42138,28755
37886,28755
37886,25054
42138,25054
42138,28755
" /> 
<polyline style="fill-rule:evenodd;"
points="42138,26846
40071,26846
40071,25054
42138,25054
42138,26846
" /> 
<polyline style="fill-rule:evenodd;"
points="39953,28755
37886,28755
37886,26964
39953,26964
39953,28755
" /> 
<polyline style="fill-rule:evenodd;"
points="39953,26846
37886,26846
37886,25054
39953,25054
39953,26846
" /> 
<polyline style="fill-rule:evenodd;"
points="42138,28755
40071,28755
40071,26964
42138,26964
42138,28755
" /> 
<polyline style="fill-rule:evenodd;"
points="50407,28237
51392,28237
51392,29812
50407,29812
50407,28237
" /> 
<polyline style="fill-rule:evenodd;"
points="50407,25087
51392,25087
51392,26662
50407,26662
50407,25087
" /> 
</g>
<g style="fill:#000000; fill-opacity:1.0; 
stroke:#000000; stroke-width:590.551; stroke-opacity:1; 
stroke-linecap:round; stroke-linejoin:round;">
</g>
<g style="fill:#000000; fill-opacity:0.0; 
stroke:#000000; stroke-width:590.551; stroke-opacity:1; 
stroke-linecap:round; stroke-linejoin:round;">
<path d="M38673 30507
L38673 31576
" />
<path d="M38673 31576
L38300 31950
" />
<path d="M38300 31950
L37697 31950
" />
<path d="M37697 31950
L36400 30652
" />
<path d="M36400 30652
L36400 30487
" />
<path d="M36400 30487
L36400 29250
" />
<path d="M36400 29250
L35250 28100
" />
<path d="M42200 28650
L42200 26900
" />
<path d="M42000 28850
L42200 28650
" />
<path d="M37800 28850
L42000 28850
" />
<path d="M37800 27200
L37800 28850
" />
<path d="M36731 26131
L37800 27200
" />
<path d="M35250 26131
L36731 26131
" />
<path d="M41998 25100
L36281 25100
" />
<path d="M36281 25100
L35250 26131
" />
<path d="M42759 25861
L41998 25100
" />
<path d="M44000 25861
L42759 25861
" />
<path d="M38200 28900
L38200 28580
" />
<path d="M38200 28580
L38920 27860
" />
<path d="M41239 28900
L38200 28900
" />
<path d="M41351 30507
L41351 29011
" />
<path d="M41351 29011
L41239 28900
" />
</g>
<g style="fill:#000000; fill-opacity:0.0; 
stroke:#000000; stroke-width:1574.8; stroke-opacity:1; 
stroke-linecap:round; stroke-linejoin:round;">
<path d="M35250 26131
L34218 26131
" />
<path d="M35217 32612
L36400 32612
" />
<path d="M34218 26131
L33500 26850
" />
<path d="M33500 26850
L33500 30895
" />
<path d="M33500 30895
L35217 32612
" />
<path d="M52850 26700
L52025 25875
" />
<path d="M52025 25875
L50900 25875
" />
<path d="M52850 32600
L52850 26700
" />
<path d="M51950 33500
L52850 32600
" />
<path d="M50950 33500
L51950 33500
" />
<path d="M35250 26131
L38739 26131
" />
<path d="M38739 26131
L38920 25950
" />
<path d="M50900 25875
L47511 25875
" />
<path d="M47511 25875
L47100 26287
" />
<path d="M41105 25950
L46763 25950
" />
<path d="M46763 25950
L47100 26287
" />
<path d="M41105 25950
L41105 27860
" />
<path d="M38920 25950
L38920 27860
" />
<path d="M38920 25950
L41105 25950
" />
</g>
<g style="fill:#000000; fill-opacity:0.0; 
stroke:#000000; stroke-width:196.85; stroke-opacity:1; 
stroke-linecap:round; stroke-linejoin:round;">
<path d="M40012 30507
L40012 28952
" />
<path d="M40012 28952
L38920 27860
" />
<path d="M41351 30507
L41351 28106
" />
<path d="M41351 28106
L41105 27860
" />
<path d="M40012 30507
L40012 32637
" />
<path d="M40012 32637
L39800 32850
" />
<path d="M42700 30551
L42700 27950
" />
<path d="M42700 27950
L43169 27480
" />
<path d="M43169 27480
L45779 27480
" />
<path d="M45779 27480
L46073 27775
" />
<path d="M46073 27775
L47009 27775
" />
<path d="M47009 27775
L47100 27865
" />
<path d="M47100 27865
L47100 28412
" />
</g>
<g style="fill:#000000; fill-opacity:0.0; 
stroke:#000000; stroke-width:590.551; stroke-opacity:1; 
stroke-linecap:round; stroke-linejoin:round;">
<path d="M44001 32100
L44001 28539
" />
<path d="M44001 28539
L44000 28538
" />
<path d="M39050 33300
L39503 33753
" />
<path d="M39503 33753
L42839 33753
" />
<path d="M44001 32592
L44001 32100
" />
<path d="M42839 33753
L44001 32592
" />
<path d="M39050 32408
L39050 33300
" />
<path d="M39343 30507
L39343 32115
" />
<path d="M39343 32115
L39050 32408
" />
</g>
<g style="fill:#000000; fill-opacity:0.0; 
stroke:#000000; stroke-width:196.85; stroke-opacity:1; 
stroke-linecap:round; stroke-linejoin:round;">
<path d="M40681 30507
L40681 32731
" />
<path d="M40681 32731
L40800 32850
" />
<path d="M40800 32850
L41800 32850
" />
<path d="M42700 31300
L42700 31950
" />
<path d="M42700 31950
L41800 32850
" />
</g>
<g style="fill:#000000; fill-opacity:1.0; 
stroke:#000000; stroke-width:100; stroke-opacity:1; 
stroke-linecap:round; stroke-linejoin:round;">
<polyline style="fill-rule:evenodd;"
points="51812,32170
51732,32250
51466,32250
51495,32244
51540,32225
51581,32198
51616,32163
51643,32122
51662,32076
51672,32028
51672,31740
51609,31678
51096,31678
51096,31686
50803,31686
50803,31678
50290,31678
50227,31740
50227,32028
50237,32076
50256,32122
50283,32163
50318,32198
50359,32225
50404,32244
50433,32250
49200,32250
49186,32251
49173,32257
49162,32266
49154,32278
49150,32292
49150,32300
49150,33650
46400,33650
46400,32309
47077,32309
47077,33187
47087,33235
47106,33281
47133,33322
47168,33357
47209,33384
47255,33403
47303,33412
47689,33412
47751,33350
47751,32246
48045,32246
48045,33350
48108,33412
48494,33412
48542,33403
48588,33384
48629,33357
48663,33322
48691,33281
48710,33235
48719,33187
48719,32309
48657,32246
48045,32246
47751,32246
47140,32246
47077,32309
46400,32309
46400,31012
47077,31012
47077,31890
47140,31953
47751,31953
47751,30849
48045,30849
48045,31953
48657,31953
48719,31890
48719,31034
50227,31034
50227,31322
50290,31384
50803,31384
50803,30871
51096,30871
51096,31384
51609,31384
51672,31322
51672,31034
51662,30986
51643,30940
51616,30899
51581,30864
51540,30837
51495,30818
51447,30809
51159,30809
51096,30871
50803,30871
50740,30809
50452,30809
50404,30818
50359,30837
50318,30864
50283,30899
50256,30940
50237,30986
50227,31034
48719,31034
48719,31012
48710,30964
48691,30918
48663,30877
48629,30842
48588,30815
48542,30796
48494,30787
48108,30787
48045,30849
47751,30849
47689,30787
47303,30787
47255,30796
47209,30815
47168,30842
47133,30877
47106,30918
47087,30964
47077,31012
46400,31012
46400,28622
46535,28622
46535,29126
46544,29174
46563,29220
46590,29261
46625,29296
46666,29323
46712,29342
46760,29351
46890,29351
46953,29289
46953,28559
47246,28559
47246,29289
47309,29351
47439,29351
47487,29342
47533,29323
47574,29296
47609,29261
47627,29234
50157,29234
50157,29836
50167,29885
50186,29930
50213,29971
50248,30006
50289,30033
50334,30052
50383,30062
50690,30062
50753,29999
50753,29171
51046,29171
51046,29999
51109,30062
51416,30062
51465,30052
51510,30033
51551,30006
51586,29971
51613,29930
51632,29885
51642,29836
51642,29234
51579,29171
51046,29171
50753,29171
50220,29171
50157,29234
47627,29234
47636,29220
47655,29174
47664,29126
47664,28622
47602,28559
47246,28559
46953,28559
46597,28559
46535,28622
46400,28622
46400,27699
46535,27699
46535,28203
46597,28266
46953,28266
46953,27536
47246,27536
47246,28266
47602,28266
47655,28212
50157,28212
50157,28815
50220,28877
50753,28877
50753,28049
51046,28049
51046,28877
51579,28877
51642,28815
51642,28212
51632,28164
51613,28118
51586,28078
51551,28043
51510,28015
51465,27997
51416,27987
51109,27987
51046,28049
50753,28049
50690,27987
50383,27987
50334,27997
50289,28015
50248,28043
50213,28078
50186,28118
50167,28164
50157,28212
47655,28212
47664,28203
47664,27699
47655,27651
47636,27605
47609,27564
47574,27529
47533,27502
47487,27483
47439,27474
47309,27474
47246,27536
46953,27536
46890,27474
46760,27474
46712,27483
46666,27502
46625,27529
46590,27564
46563,27605
46544,27651
46535,27699
46400,27699
46400,27400
51812,27400
51812,32170
" /> 
<polyline style="fill-rule:evenodd;"
points="53720,35220
32279,35220
32279,32822
35835,32822
35835,33326
35844,33374
35863,33420
35890,33461
35925,33496
35966,33523
36012,33542
36060,33551
36190,33551
36253,33489
36253,32759
36546,32759
36546,33489
36609,33551
36739,33551
36787,33542
36833,33523
36874,33496
36909,33461
36936,33420
36955,33374
36964,33326
36964,32822
36902,32759
36546,32759
36253,32759
35897,32759
35835,32822
32279,32822
32279,31899
35835,31899
35835,32403
35897,32466
36253,32466
36253,31736
36190,31674
36060,31674
36012,31683
35966,31702
35925,31729
35890,31764
35863,31805
35844,31851
35835,31899
32279,31899
32279,27627
34526,27627
34526,28572
34529,28612
34550,28679
34589,28738
34643,28784
34707,28813
34777,28823
35202,28823
35854,29475
35854,29703
35843,29728
35833,29798
35833,31175
35837,31215
35857,31283
35896,31342
35950,31388
36015,31417
36085,31427
36403,31427
36650,31674
36609,31674
36546,31736
36546,32466
36902,32466
36964,32403
36964,31988
37312,32335
37350,32367
37389,32399
37392,32401
37394,32403
37438,32426
37482,32451
37485,32452
37488,32453
37536,32468
37584,32483
37587,32483
37589,32484
37639,32489
37689,32495
37695,32495
37695,32495
37695,32495
37697,32495
38300,32495
38350,32490
38400,32485
38403,32485
38405,32484
38454,32470
38502,32456
38504,32455
38504,33300
38509,33350
38514,33400
38514,33403
38515,33405
38529,33454
38543,33502
38545,33505
38545,33507
38569,33552
38592,33596
38594,33599
38595,33601
38627,33640
38659,33680
38663,33684
38663,33684
38663,33684
38664,33685
39117,34139
39156,34171
39195,34203
39197,34204
39200,34206
39244,34230
39288,34254
39291,34255
39293,34256
39342,34271
39390,34286
39393,34287
39395,34288
39445,34293
39495,34298
39501,34298
39501,34298
39501,34298
39503,34298
42839,34298
42889,34293
42940,34289
42942,34288
42945,34288
42993,34273
43042,34259
43044,34258
43047,34257
43070,34245
43070,34450
43073,34476
43075,34502
43075,34503
43075,34504
43083,34529
43090,34554
43091,34555
43091,34556
43103,34579
43116,34603
43116,34603
43117,34604
43133,34625
43150,34645
43151,34646
43151,34646
43171,34663
43192,34680
43192,34681
43193,34681
43216,34694
43239,34706
43240,34707
43241,34707
43266,34715
43291,34723
43292,34723
43293,34723
43319,34726
43346,34729
43347,34729
43348,34729
43348,34729
43350,34729
48550,34729
48576,34726
48602,34724
48603,34724
48604,34724
48629,34716
48654,34709
48655,34708
48656,34708
48679,34696
48703,34683
48703,34683
48704,34682
48725,34666
48745,34649
48746,34648
48746,34648
48763,34628
48780,34607
48781,34607
48781,34606
48794,34583
48806,34560
48807,34559
48807,34558
48815,34533
48823,34508
48823,34507
48823,34506
48826,34480
48829,34453
48829,34452
48829,34451
48829,34451
48829,34450
48829,34061
50596,34061
50650,34161
50785,34207
50926,34225
51068,34216
51206,34179
51249,34161
51303,34061
50950,33707
50596,34061
48829,34061
48829,34050
48824,33995
48810,33950
49200,33950
49290,33932
49374,33879
49430,33797
49450,33700
49450,33476
50224,33476
50233,33618
50270,33756
50288,33799
50388,33853
50742,33500
51157,33500
51511,33853
51611,33799
51657,33664
51675,33523
51666,33381
51629,33243
51611,33200
51511,33146
51157,33500
50742,33500
50388,33146
50288,33200
50242,33335
50224,33476
49450,33476
49450,32938
50596,32938
50950,33292
51303,32938
51249,32838
51114,32792
50973,32774
50831,32783
50693,32820
50650,32838
50596,32938
49450,32938
49450,32550
52000,32550
52090,32532
52174,32479
52230,32397
52250,32300
52250,27350
52232,27259
52179,27175
52097,27119
52000,27100
47632,27100
47636,27094
47655,27048
47664,27000
47664,26496
47602,26433
47246,26433
47246,26441
46953,26441
46953,26433
46597,26433
46535,26496
46535,27000
46544,27048
46563,27094
46567,27100
46350,27100
46259,27117
46175,27170
46119,27252
46107,27315
46025,27233
46000,27213
45976,27192
45974,27191
45973,27190
45944,27175
45916,27160
45914,27159
45913,27158
45882,27149
45851,27139
45849,27139
45848,27138
45816,27135
45784,27131
45780,27131
45780,27131
45780,27131
45779,27131
43169,27131
43137,27135
43105,27137
43103,27138
43101,27138
43071,27147
43040,27156
43038,27157
43036,27158
43008,27173
42979,27188
42978,27189
42976,27190
42951,27210
42926,27230
42924,27233
42924,27233
42924,27233
42923,27233
42453,27703
42433,27728
42412,27753
42411,27754
42410,27756
42395,27784
42388,27796
42388,26939
42381,26905
42388,26870
42388,26070
43100,26070
43100,26378
43110,26426
43128,26471
43156,26512
43191,26547
43231,26575
43277,26593
43325,26603
43790,26603
43853,26541
43853,26008
44146,26008
44146,26541
44209,26603
44674,26603
44722,26593
44768,26575
44808,26547
44843,26512
44871,26471
44889,26426
44899,26378
44899,26070
44837,26008
44146,26008
43853,26008
43162,26008
43100,26070
42388,26070
42388,25344
43100,25344
43100,25652
43162,25714
43853,25714
43853,25181
44146,25181
44146,25714
44837,25714
44899,25652
44899,25573
46535,25573
46535,26077
46597,26140
46953,26140
46953,25410
47246,25410
47246,26140
47602,26140
47658,26084
50157,26084
50157,26687
50167,26735
50186,26781
50213,26821
50248,26856
50289,26884
50334,26902
50383,26912
50690,26912
50753,26850
50753,26022
51046,26022
51046,26850
51109,26912
51416,26912
51465,26902
51510,26884
51551,26856
51586,26821
51613,26781
51632,26735
51642,26687
51642,26084
51579,26022
51046,26022
50753,26022
50220,26022
50157,26084
47658,26084
47664,26077
47664,25573
47655,25525
47636,25479
47609,25438
47574,25403
47533,25376
47487,25357
47439,25348
47309,25348
47246,25410
46953,25410
46890,25348
46760,25348
46712,25357
46666,25376
46625,25403
46590,25438
46563,25479
46544,25525
46535,25573
44899,25573
44899,25344
44889,25296
44871,25250
44843,25209
44808,25175
44768,25147
44722,25128
44674,25119
44209,25119
44146,25181
43853,25181
43790,25119
43325,25119
43277,25128
43231,25147
43191,25175
43156,25209
43128,25250
43110,25296
43100,25344
42388,25344
42388,25063
50157,25063
50157,25665
50220,25728
50753,25728
50753,24900
51046,24900
51046,25728
51579,25728
51642,25665
51642,25063
51632,25014
51613,24969
51586,24928
51551,24893
51510,24866
51465,24847
51416,24837
51109,24837
51046,24900
50753,24900
50690,24837
50383,24837
50334,24847
50289,24866
50248,24893
50213,24928
50186,24969
50167,25014
50157,25063
42388,25063
42388,25030
42378,24981
42360,24936
42332,24895
42297,24860
42256,24833
42211,24814
42163,24804
40046,24804
40012,24811
39978,24804
37861,24804
37813,24814
37768,24833
37727,24860
37692,24895
37664,24936
37646,24981
37636,25030
37636,26870
37643,26905
37636,26939
37636,28780
37646,28828
37664,28874
37692,28915
37727,28949
37768,28977
37813,28996
37861,29005
39978,29005
40012,28998
40046,29005
42163,29005
42211,28996
42256,28977
42297,28949
42332,28915
42351,28886
42351,30182
42336,30187
42277,30225
42231,30279
42202,30344
42192,30414
42192,30689
42196,30729
42216,30797
42255,30856
42309,30901
42364,30926
42336,30935
42277,30973
42231,31027
42202,31092
42192,31162
42192,31437
42196,31477
42216,31545
42255,31604
42309,31650
42351,31668
42351,31805
41840,32316
41751,32316
41648,32335
41551,32374
41464,32432
41393,32501
41205,32501
41141,32436
41054,32378
41030,32368
41030,31640
41061,31653
41109,31663
41180,31663
41242,31600
41242,30654
41459,30654
41459,31600
41521,31663
41592,31663
41640,31653
41686,31634
41727,31607
41761,31572
41789,31531
41808,31486
41817,31437
41817,30716
41755,30654
41459,30654
41242,30654
41196,30654
41196,30360
41242,30360
41242,29414
41459,29414
41459,30360
41755,30360
41817,30298
41817,29577
41808,29529
41789,29483
41761,29442
41727,29407
41686,29380
41640,29361
41592,29352
41521,29352
41459,29414
41242,29414
41180,29352
41109,29352
41061,29361
41016,29380
41014,29381
40968,29360
40898,29350
40465,29350
40425,29354
40357,29375
40348,29381
40347,29380
40301,29361
40253,29352
40183,29352
40120,29414
40120,30360
40167,30360
40167,30654
40120,30654
40120,31600
40183,31663
40253,31663
40301,31653
40333,31640
40333,32587
40330,32591
40300,32660
40219,32630
40000,32850
40009,32859
39809,33059
39800,33050
39790,33059
39595,32864
39595,32854
39599,32850
39595,32845
39595,32835
39790,32640
39800,32649
40019,32430
39989,32348
39887,32321
39848,32318
39861,32276
39876,32228
39876,32225
39877,32222
39882,32172
39888,32122
39888,32117
39888,32117
39888,32117
39888,32115
39888,31616
39904,31600
39904,30654
39888,30654
39888,30507
39878,30401
39865,30360
39904,30360
39904,29414
39841,29352
39771,29352
39723,29361
39677,29380
39675,29381
39629,29360
39559,29350
39126,29350
39086,29354
39019,29375
39008,29382
38960,29360
38890,29350
38457,29350
38417,29354
38350,29375
38291,29413
38245,29467
38216,29532
38206,29602
38206,30232
38172,30292
38140,30394
38128,30500
38128,30507
38128,31350
38074,31404
37923,31404
36966,30447
36966,29798
36962,29758
36945,29701
36945,29250
36940,29199
36935,29149
36935,29146
36934,29144
36920,29095
36906,29047
36904,29044
36904,29042
36880,28997
36857,28953
36855,28950
36854,28948
36822,28909
36790,28869
36786,28865
36786,28865
36786,28865
36785,28864
35973,28052
35973,27627
35970,27587
35949,27520
35910,27461
35856,27415
35792,27386
35722,27376
34777,27376
34737,27379
34670,27400
34611,27439
34565,27493
34536,27557
34526,27627
32279,27627
32279,26692
34896,26692
34950,26792
35085,26838
35226,26857
35368,26847
35506,26810
35549,26792
35603,26692
35250,26339
34896,26692
32279,26692
32279,26108
34524,26108
34533,26250
34570,26387
34588,26430
34688,26485
35042,26131
35457,26131
35811,26485
35911,26430
35957,26295
35975,26154
35966,26012
35929,25875
35911,25832
35811,25777
35457,26131
35042,26131
34688,25777
34588,25832
34542,25967
34524,26108
32279,26108
32279,25570
34896,25570
35250,25923
35603,25570
35549,25470
35414,25424
35273,25405
35131,25415
34993,25452
34950,25470
34896,25570
32279,25570
32279,24779
53720,24779
53720,35220
" /> 
</g> 
</svg>
